<svg width="20" height="13" xmlns="http://www.w3.org/2000/svg"><g id="icon" stroke="none" stroke-width="1" fill="none" fill-rule="evenodd"><g id="Favicon" transform="translate(-8 -24)" fill-rule="nonzero"><g id="Icon" transform="translate(8 24)"><g id="icecream" transform="translate(6.077 1.068)" fill="#272727"><path d="M7.845 4.636a2.5 2.5 0 00-1.43-2.257A2.5 2.5 0 003.923 0 2.5 2.5 0 001.43 2.38 2.5 2.5 0 000 4.635a2.5 2.5 0 001.523 2.298l2.08 4.276a.357.357 0 00.641 0l2.079-4.276a2.5 2.5 0 001.523-2.298h-.001zM5.349 6.419H2.496c-.983 0-1.783-.8-1.783-1.783A1.785 1.785 0 013.09 2.954a.356.356 0 10.238-.673 2.495 2.495 0 00-1.157-.12A1.786 1.786 0 013.92.713a1.784 1.784 0 011.33 2.972.356.356 0 10.53.475c.262-.292.45-.64.55-1.012a1.785 1.785 0 01-.983 3.27z" id="Shape"/></g><g id="light" fill="#000"><path d="M19.237 3.777h-4.074c-.278 0-.463.236-.463.591s.185.59.463.59h4.074c.278 0 .463-.235.463-.59s-.231-.59-.463-.59zM5 4.368c0-.355-.19-.59-.476-.59H.476c-.286 0-.476.235-.476.59s.19.59.476.59h4.048c.238 0 .476-.235.476-.59zm9.504-1.664c.051 0 .155 0 .206-.059l2.993-1.536c.257-.118.36-.473.257-.768a.489.489 0 00-.67-.296l-2.993 1.537c-.257.118-.36.472-.257.768.103.177.31.354.464.354zM1.836 1.18l2.986 1.457c.05 0 .1.063.199.063a.45.45 0 00.448-.38c.1-.317-.05-.697-.299-.823L2.184.04c-.249-.127-.547.063-.647.38-.1.253 0 .633.299.76zm16.228 6.282L15.078 6.04c-.249-.124-.547.062-.647.371-.1.31.05.68.299.805l2.986 1.423c.05 0 .1.062.199.062a.448.448 0 00.448-.371c.1-.372 0-.743-.299-.867zM5.46 6.34c-.103-.295-.412-.413-.67-.295L1.797 7.582c-.257.118-.36.472-.257.768.103.236.257.354.464.354.051 0 .155 0 .206-.059L5.203 7.11c.257-.118.36-.473.257-.768z" id="Shape"/></g></g></g></g></svg>